/* XPM */
static char * close_pressed_xpm[] = {
"48 52 59 1",
" 	c None",
".	c #E6E5E6",
"+	c #E7E6E7",
"@	c #E5E4E5",
"#	c #E4E3E4",
"$	c #E2D2D5",
"%	c #DC8189",
"&	c #D84B56",
"*	c #D62F3D",
"=	c #D84C57",
"-	c #DC828A",
";	c #DFA4AA",
">	c #D6313E",
",	c #D52735",
"'	c #DFA5AA",
")	c #E3E2E3",
"!	c #DEA4A9",
"~	c #D52836",
"{	c #DEA5A9",
"]	c #E1D2D4",
"^	c #CF2634",
"/	c #D22734",
"(	c #D5313E",
"_	c #E2D2D4",
":	c #DB8188",
"<	c #D02634",
"[	c #72151C",
"}	c #7D171F",
"|	c #CC2533",
"1	c #DC838A",
"2	c #D84A55",
"3	c #6A131A",
"4	c #7C171F",
"5	c #D84B57",
"6	c #E2E1E2",
"7	c #D6303E",
"8	c #7B161F",
"9	c #CB2533",
"0	c #CA2532",
"a	c #D84A56",
"b	c #D74B56",
"c	c #E1E0E1",
"d	c #DA8188",
"e	c #DB838A",
"f	c #E0D0D3",
"g	c #D5303D",
"h	c #D5323F",
"i	c #E0D1D3",
"j	c #DDA3A8",
"k	c #DDA5AA",
"l	c #E0DFE0",
"m	c #E0D0D2",
"n	c #DB8189",
"o	c #D74B57",
"p	c #D62F3E",
"q	c #DB828A",
"r	c #DFD1D2",
"s	c #DFDEDF",
"x  c #E5E4E5",
"xxxxxxxxxxxxxxxxxxxxxxxxxxxxxxxxxxxxxxxxxxxxxxxx",
"xxxxxxxxxxxxxxxxxxxxxxxxxxxxxxxxxxxxxxxxxxxxxxxx",
"xxxxxxxxxxxxxxxxxxxxxxxxxxxxxxxxxxxxxxxxxxxxxxxx",
"xxxxxxxxxxxxxxxxxxxxxxxxxxxxxxxxxxxxxxxxxxxxxxxx",
"xxxxxxxxxxxxxxxxxxxxxxxxxxxxxxxxxxxxxxxxxxxxxxxx",
"xxxxxxxxxxxxxxxxxxxxxxxxxxxxxxxxxxxxxxxxxxxxxxxx",
"................................................",
"................................................",
"@@@@@@@@@@@@@@@@@@@@@@@@@@@@@@@@@@@@@@@@@@@@@@@@",
"@@@@@@@@@@@@@@@@@@@@@@@@@@@@@@@@@@@@@@@@@@@@@@@@",
"@@@@@@####################################@@@@@@",
"@@@@@@####################################@@@@@@",
"@@@@@@####################################@@@@@@",
"@@@@@@####################################@@@@@@",
"################$$%%&&****==--$$################",
"################$$%%&&****==--$$################",
"##############;;>>,,,,,,,,,,,,>>''##############",
"##############;;>>,,,,,,,,,,,,>>''##############",
"######))))))!!~~,,,,,,,,,,,,,,,,~~{{))))))######",
"######))))))!!~~,,,,,,,,,,,,,,,,~~{{))))))######",
"######))))]]>>,,,,^^//,,,,//^^,,,,((__))))######",
"######))))]]>>,,,,^^//,,,,//^^,,,,((__))))######",
"))))))))))::,,,,<<[[}}||||}}[[<<,,,,11))))))))))",
"))))))))))::,,,,<<[[}}||||}}[[<<,,,,11))))))))))",
"))))))))))22,,,,//}}33444433}}//,,,,55))))))))))",
"))))))))))22,,,,//}}33444433}}//,,,,55))))))))))",
"))))))666677,,,,,,||}}33338899,,,,,,776666))))))",
"))))))666677,,,,,,||}}33338899,,,,,,776666))))))",
"6666))666677,,,,,,||}}33338800,,,,,,((66666666))",
"6666))666677,,,,,,||}}33338800,,,,,,((66666666))",
"6666666666aa,,,,//}}33444433}}//,,,,bb6666666666",
"6666666666aa,,,,//}}33444433}}//,,,,bb6666666666",
"666666ccccdd,,,,<<[[}}||||}}[[<<,,,,eecccc666666",
"666666ccccdd,,,,<<[[}}||||}}[[<<,,,,eecccc666666",
"666666ccccffgg,,,,<<//,,,,//<<,,,,hhiicccc666666",
"666666ccccffgg,,,,<<//,,,,//<<,,,,hhiicccc666666",
"ccccccccccccjj~~,,,,,,,,,,,,,,,,~~kkcccccccccccc",
"ccccccccccccjj~~,,,,,,,,,,,,,,,,~~kkcccccccccccc",
"ccccccccccccccjj((,,,,,,,,,,,,hhkkcccccccccccccc",
"ccccccccccccccjj((,,,,,,,,,,,,hhkkcccccccccccccc",
"ccccccllllllllllmmnnooppppooqqrrllllllllllcccccc",
"ccccccllllllllllmmnnooppppooqqrrllllllllllcccccc",
"ccccccllllllllllllllllllllllllllllllllllllcccccc",
"ccccccllllllllllllllllllllllllllllllllllllcccccc",
"llllllllllllllllllllllllllllllllllllllllllllllll",
"llllllllllllllllllllllllllllllllllllllllllllllll",
"llllllllllllllllllllllllllllllllllllllllllllllll",
"llllllllllllllllllllllllllllllllllllllllllllllll",
"llllllllllllllllllllllllllllllllllllllllllllllll",
"llllllllllllllllllllllllllllllllllllllllllllllll",
"ssssssssssssssssssssssssssssssssssssssssssssssss",
"ssssssssssssssssssssssssssssssssssssssssssssssss"};
