/* XPM */
static char * hide_prelight_xpm[] = {
"48 52 50 1",
" 	c None",
".	c #E6E5E6",
"+	c #E5E4E5",
"@	c #E4E3E4",
"#	c #E3DDD1",
"$	c #E1C074",
"%	c #E5B238",
"&	c #E9B025",
"*	c #E8B025",
"=	c #E4B338",
"-	c #E0C074",
";	c #E1CC9C",
">	c #E9B126",
",	c #F8C334",
"'	c #FAC536",
")	c #E8B126",
"!	c #E1CC9D",
"~	c #EEB729",
"{	c #E9B227",
"]	c #E3DDD2",
"^	c #E3E2E3",
"/	c #E0C073",
"(	c #F8C333",
"_	c #E0C076",
":	c #E4B236",
"<	c #E5B338",
"[	c #997921",
"}	c #7D621B",
"|	c #9A7921",
"1	c #E2E1E2",
"2	c #9B7A21",
"3	c #E9B127",
"4	c #E5B237",
"5	c #DFBF73",
"6	c #F7C233",
"7	c #DFC076",
"8	c #E2DCD0",
"9	c #E9B228",
"0	c #E1DBD1",
"a	c #E1E0E1",
"b	c #DFCA9B",
"c	c #EEB628",
"d	c #DFCB9D",
"e	c #E0DBCF",
"f	c #DFBF75",
"g	c #DFBF76",
"h	c #E0DAD0",
"i	c #E0DFE0",
"j	c #DFDEDF",
"x  c #E5E4E5",
"xxxxxxxxxxxxxxxxxxxxxxxxxxxxxxxxxxxxxxxxxxxxxxxx",
"xxxxxxxxxxxxxxxxxxxxxxxxxxxxxxxxxxxxxxxxxxxxxxxx",
"xxxxxxxxxxxxxxxxxxxxxxxxxxxxxxxxxxxxxxxxxxxxxxxx",
"xxxxxxxxxxxxxxxxxxxxxxxxxxxxxxxxxxxxxxxxxxxxxxxx",
"xxxxxxxxxxxxxxxxxxxxxxxxxxxxxxxxxxxxxxxxxxxxxxxx",
"xxxxxxxxxxxxxxxxxxxxxxxxxxxxxxxxxxxxxxxxxxxxxxxx",
"................................................",
"................................................",
"++++++++++++++++++++++++++++++++++++++++++++++++",
"++++++++++++++++++++++++++++++++++++++++++++++++",
"++++++++++++++++++++++++++++++++++++++++++++++++",
"++++++++++++++++++++++++++++++++++++++++++++++++",
"++++++++++++++++++++++++++++++++++++++++++++++++",
"++++++++++++++++++++++++++++++++++++++++++++++++",
"@@@@@@@@@@@@@@@@##$$%%&&**==--##@@@@@@@@@@@@@@@@",
"@@@@@@@@@@@@@@@@##$$%%&&**==--##@@@@@@@@@@@@@@@@",
"@@@@@@@@@@@@@@;;>>,,'''''''',,))!!@@@@@@@@@@@@@@",
"@@@@@@@@@@@@@@;;>>,,'''''''',,))!!@@@@@@@@@@@@@@",
"@@@@@@@@@@@@;;~~''''''''''''''''~~!!@@@@@@@@@@@@",
"@@@@@@@@@@@@;;~~''''''''''''''''~~!!@@@@@@@@@@@@",
"@@@@@@@@@@##>>''''''''''''''''''''{{]]@@@@@@@@@@",
"@@@@@@@@@@##>>''''''''''''''''''''{{]]@@@@@@@@@@",
"^^^^^^^^^^//,,''''''''''''''''''''((__^^^^^^^^^^",
"^^^^^^^^^^//,,''''''''''''''''''''((__^^^^^^^^^^",
"^^^^^^^^^^::''''''''''''''''''''''''<<^^^^^^^^^^",
"^^^^^^^^^^::''''''''''''''''''''''''<<^^^^^^^^^^",
"^^^^^^^^^^{{''''[[}}}}}}}}}}}}||''''))^^^^^^^^^^",
"^^^^^^^^^^{{''''[[}}}}}}}}}}}}||''''))^^^^^^^^^^",
"11^^^^1111>>''''||}}}}}}}}}}}}22''''331111^^^^11",
"11^^^^1111>>''''||}}}}}}}}}}}}22''''331111^^^^11",
"111111111144''''''''''''''''''''''''<<1111111111",
"111111111144''''''''''''''''''''''''<<1111111111",
"111111111155,,''''''''''''''''''''66771111111111",
"111111111155,,''''''''''''''''''''66771111111111",
"111111111188))''''''''''''''''''''99001111111111",
"111111111188))''''''''''''''''''''99001111111111",
"aaaaaaaaaaaabb~~''''''''''''''''ccddaaaaaaaaaaaa",
"aaaaaaaaaaaabb~~''''''''''''''''ccddaaaaaaaaaaaa",
"aaaaaaaaaaaaaabb33((''''''''6699ddaaaaaaaaaaaaaa",
"aaaaaaaaaaaaaabb33((''''''''6699ddaaaaaaaaaaaaaa",
"aaaaaaaaaaaaaaaaeeff<<>>>><<gghhaaaaaaaaaaaaaaaa",
"aaaaaaaaaaaaaaaaeeff<<>>>><<gghhaaaaaaaaaaaaaaaa",
"aaaaaaaaaaaaaaaaaaaaaaaaaaaaaaaaaaaaaaaaaaaaaaaa",
"aaaaaaaaaaaaaaaaaaaaaaaaaaaaaaaaaaaaaaaaaaaaaaaa",
"iiiiiiiiiiiiiiiiiiiiiiiiiiiiiiiiiiiiiiiiiiiiiiii",
"iiiiiiiiiiiiiiiiiiiiiiiiiiiiiiiiiiiiiiiiiiiiiiii",
"iiiiiiiiiiiiiiiiiiiiiiiiiiiiiiiiiiiiiiiiiiiiiiii",
"iiiiiiiiiiiiiiiiiiiiiiiiiiiiiiiiiiiiiiiiiiiiiiii",
"iiiiiiiiiiiiiiiiiiiiiiiiiiiiiiiiiiiiiiiiiiiiiiii",
"iiiiiiiiiiiiiiiiiiiiiiiiiiiiiiiiiiiiiiiiiiiiiiii",
"jjjjjjjjjjjjjjjjjjjjjjjjjjjjjjjjjjjjjjjjjjjjjjjj",
"jjjjjjjjjjjjjjjjjjjjjjjjjjjjjjjjjjjjjjjjjjjjjjjj"};
