/* XPM */
static char * hide_pressed_xpm[] = {
"48 52 52 1",
" 	c None",
".	c #E6E5E6",
"+	c #E5E4E5",
"@	c #E4E3E4",
"#	c #E3DDD1",
"$	c #DFBF76",
"%	c #DCAB38",
"&	c #DBA119",
"*	c #DCAC39",
"=	c #DFBF77",
"-	c #E1CC9D",
";	c #DBA21B",
">	c #DA9E10",
",	c #E1CC9E",
"'	c #E3E2E3",
")	c #E0CC9C",
"!	c #DA9E11",
"~	c #E0CC9D",
"{	c #E2DDD0",
"]	c #DAA11B",
"^	c #E2DCD1",
"/	c #DEBF75",
"(	c #DEC077",
"_	c #DCAB37",
":	c #DCAB39",
"<	c #E2E1E2",
"[	c #DBA21A",
"}	c #85610A",
"|	c #6D4F08",
"1	c #86610A",
"2	c #DBA11B",
"3	c #87620A",
"4	c #DCAA38",
"5	c #DBAB38",
"6	c #E1E0E1",
"7	c #DDBE75",
"8	c #DDBF77",
"9	c #E1DBCF",
"0	c #DAA11A",
"a	c #DAA21C",
"b	c #E0DAD0",
"c	c #DFCA9C",
"d	c #DFCB9E",
"e	c #E0DFE0",
"f	c #E0DACF",
"g	c #DDBE76",
"h	c #DBAB39",
"i	c #DBA11A",
"j	c #DDBE77",
"k	c #DFDACF",
"l	c #DFDEDF",
"x  c #E5E4E5",
"xxxxxxxxxxxxxxxxxxxxxxxxxxxxxxxxxxxxxxxxxxxxxxxx",
"xxxxxxxxxxxxxxxxxxxxxxxxxxxxxxxxxxxxxxxxxxxxxxxx",
"xxxxxxxxxxxxxxxxxxxxxxxxxxxxxxxxxxxxxxxxxxxxxxxx",
"xxxxxxxxxxxxxxxxxxxxxxxxxxxxxxxxxxxxxxxxxxxxxxxx",
"xxxxxxxxxxxxxxxxxxxxxxxxxxxxxxxxxxxxxxxxxxxxxxxx",
"xxxxxxxxxxxxxxxxxxxxxxxxxxxxxxxxxxxxxxxxxxxxxxxx",
"................................................",
"................................................",
"++++++++++++++++++++++++++++++++++++++++++++++++",
"++++++++++++++++++++++++++++++++++++++++++++++++",
"++++++@@@@@@@@@@@@@@@@@@@@@@@@@@@@@@@@@@@@++++++",
"++++++@@@@@@@@@@@@@@@@@@@@@@@@@@@@@@@@@@@@++++++",
"++++++@@@@@@@@@@@@@@@@@@@@@@@@@@@@@@@@@@@@++++++",
"++++++@@@@@@@@@@@@@@@@@@@@@@@@@@@@@@@@@@@@++++++",
"@@@@@@@@@@@@@@@@##$$%%&&&&**==##@@@@@@@@@@@@@@@@",
"@@@@@@@@@@@@@@@@##$$%%&&&&**==##@@@@@@@@@@@@@@@@",
"@@@@@@@@@@@@@@--;;>>>>>>>>>>>>;;,,@@@@@@@@@@@@@@",
"@@@@@@@@@@@@@@--;;>>>>>>>>>>>>;;,,@@@@@@@@@@@@@@",
"@@@@@@''''''))!!>>>>>>>>>>>>>>>>!!~~''''''@@@@@@",
"@@@@@@''''''))!!>>>>>>>>>>>>>>>>!!~~''''''@@@@@@",
"@@@@@@''''{{;;>>>>>>>>>>>>>>>>>>>>]]^^''''@@@@@@",
"@@@@@@''''{{;;>>>>>>>>>>>>>>>>>>>>]]^^''''@@@@@@",
"''''''''''//>>>>>>>>>>>>>>>>>>>>>>>>((''''''''''",
"''''''''''//>>>>>>>>>>>>>>>>>>>>>>>>((''''''''''",
"''''''''''__>>>>>>>>>>>>>>>>>>>>>>>>::''''''''''",
"''''''''''__>>>>>>>>>>>>>>>>>>>>>>>>::''''''''''",
"''''''<<<<[[>>>>}}||||||||||||11>>>>22<<<<''''''",
"''''''<<<<[[>>>>}}||||||||||||11>>>>22<<<<''''''",
"<<''''<<<<22>>>>11||||||||||||33>>>>]]<<<<''''<<",
"<<''''<<<<22>>>>11||||||||||||33>>>>]]<<<<''''<<",
"<<<<<<<<<<44>>>>>>>>>>>>>>>>>>>>>>>>55<<<<<<<<<<",
"<<<<<<<<<<44>>>>>>>>>>>>>>>>>>>>>>>>55<<<<<<<<<<",
"<<<<<<666677>>>>>>>>>>>>>>>>>>>>>>>>886666<<<<<<",
"<<<<<<666677>>>>>>>>>>>>>>>>>>>>>>>>886666<<<<<<",
"<<<<<<66669900>>>>>>>>>>>>>>>>>>>>aabb6666<<<<<<",
"<<<<<<66669900>>>>>>>>>>>>>>>>>>>>aabb6666<<<<<<",
"666666666666cc!!>>>>>>>>>>>>>>>>!!dd666666666666",
"666666666666cc!!>>>>>>>>>>>>>>>>!!dd666666666666",
"66666666666666cc]]>>>>>>>>>>>>aadd66666666666666",
"66666666666666cc]]>>>>>>>>>>>>aadd66666666666666",
"666666eeeeeeeeeeffgghhiiiihhjjkkeeeeeeeeee666666",
"666666eeeeeeeeeeffgghhiiiihhjjkkeeeeeeeeee666666",
"666666eeeeeeeeeeeeeeeeeeeeeeeeeeeeeeeeeeee666666",
"666666eeeeeeeeeeeeeeeeeeeeeeeeeeeeeeeeeeee666666",
"eeeeeeeeeeeeeeeeeeeeeeeeeeeeeeeeeeeeeeeeeeeeeeee",
"eeeeeeeeeeeeeeeeeeeeeeeeeeeeeeeeeeeeeeeeeeeeeeee",
"eeeeeeeeeeeeeeeeeeeeeeeeeeeeeeeeeeeeeeeeeeeeeeee",
"eeeeeeeeeeeeeeeeeeeeeeeeeeeeeeeeeeeeeeeeeeeeeeee",
"eeeeeeeeeeeeeeeeeeeeeeeeeeeeeeeeeeeeeeeeeeeeeeee",
"eeeeeeeeeeeeeeeeeeeeeeeeeeeeeeeeeeeeeeeeeeeeeeee",
"llllllllllllllllllllllllllllllllllllllllllllllll",
"llllllllllllllllllllllllllllllllllllllllllllllll"};
